<mxfile host="app.diagrams.net" modified="2024-04-14T04:49:04.537Z" agent="Mozilla/5.0 (Windows NT 10.0; Win64; x64) AppleWebKit/537.36 (KHTML, like Gecko) Chrome/123.0.0.0 Safari/537.36" etag="BcqMy5a3V7sbC-Ol5O9S" version="24.2.3" type="device" pages="2">
  <diagram id="C5RBs43oDa-KdzZeNtuy" name="Page-1">
    <mxGraphModel dx="1434" dy="738" grid="1" gridSize="10" guides="1" tooltips="1" connect="1" arrows="1" fold="1" page="1" pageScale="1" pageWidth="827" pageHeight="1169" math="0" shadow="0">
      <root>
        <mxCell id="WIyWlLk6GJQsqaUBKTNV-0" />
        <mxCell id="WIyWlLk6GJQsqaUBKTNV-1" parent="WIyWlLk6GJQsqaUBKTNV-0" />
        <mxCell id="qVBupRVu0tQ40ZCtyZJ1-0" value="&lt;span style=&quot;font-size: 13px;&quot;&gt;&lt;b&gt;model_trainer_dir&lt;/b&gt;&lt;/span&gt;" style="rounded=1;whiteSpace=wrap;html=1;strokeColor=none;" vertex="1" parent="WIyWlLk6GJQsqaUBKTNV-1">
          <mxGeometry x="499" y="337" width="120" height="30" as="geometry" />
        </mxCell>
        <mxCell id="qVBupRVu0tQ40ZCtyZJ1-1" value="" style="edgeStyle=orthogonalEdgeStyle;rounded=1;orthogonalLoop=1;jettySize=auto;html=1;flowAnimation=1;strokeColor=#FF0080;strokeWidth=2;exitX=0.5;exitY=1;exitDx=0;exitDy=0;" edge="1" parent="WIyWlLk6GJQsqaUBKTNV-1" source="qVBupRVu0tQ40ZCtyZJ1-19">
          <mxGeometry relative="1" as="geometry">
            <mxPoint x="740" y="548" as="targetPoint" />
            <Array as="points">
              <mxPoint x="740" y="427" />
            </Array>
            <mxPoint x="740.4000000000001" y="493" as="sourcePoint" />
          </mxGeometry>
        </mxCell>
        <mxCell id="qVBupRVu0tQ40ZCtyZJ1-2" value="&lt;font style=&quot;font-size: 13px;&quot;&gt;&lt;b&gt;weight_name&lt;/b&gt;&lt;/font&gt;" style="rounded=1;whiteSpace=wrap;html=1;strokeColor=none;" vertex="1" parent="WIyWlLk6GJQsqaUBKTNV-1">
          <mxGeometry x="540" y="373" width="78" height="30" as="geometry" />
        </mxCell>
        <mxCell id="qVBupRVu0tQ40ZCtyZJ1-3" value="&lt;div style=&quot;text-align: right;&quot;&gt;&lt;span style=&quot;background-color: initial; font-size: 13px;&quot;&gt;&lt;b&gt;no_epochs&lt;/b&gt;&lt;/span&gt;&lt;/div&gt;" style="rounded=1;whiteSpace=wrap;html=1;strokeColor=none;" vertex="1" parent="WIyWlLk6GJQsqaUBKTNV-1">
          <mxGeometry x="550" y="426" width="80" height="30" as="geometry" />
        </mxCell>
        <mxCell id="qVBupRVu0tQ40ZCtyZJ1-4" value="&lt;font style=&quot;font-size: 13px;&quot;&gt;&lt;b&gt;batch_size&lt;/b&gt;&lt;/font&gt;" style="rounded=1;whiteSpace=wrap;html=1;strokeColor=none;" vertex="1" parent="WIyWlLk6GJQsqaUBKTNV-1">
          <mxGeometry x="550" y="466" width="80" height="30" as="geometry" />
        </mxCell>
        <mxCell id="qVBupRVu0tQ40ZCtyZJ1-7" value="&lt;b&gt;initiate_model_trainer&lt;/b&gt;" style="whiteSpace=wrap;html=1;fillColor=#6666FF;strokeColor=#3700CC;fontColor=#ffffff;rounded=1;" vertex="1" parent="WIyWlLk6GJQsqaUBKTNV-1">
          <mxGeometry x="670" y="552" width="140" height="30" as="geometry" />
        </mxCell>
        <mxCell id="qVBupRVu0tQ40ZCtyZJ1-12" value="" style="edgeStyle=orthogonalEdgeStyle;rounded=0;orthogonalLoop=1;jettySize=auto;html=1;flowAnimation=1;strokeColor=#006600;strokeWidth=2;" edge="1" parent="WIyWlLk6GJQsqaUBKTNV-1">
          <mxGeometry relative="1" as="geometry">
            <mxPoint x="541" y="677" as="sourcePoint" />
            <mxPoint x="541.4994117647059" y="745.9999999999998" as="targetPoint" />
          </mxGeometry>
        </mxCell>
        <mxCell id="qVBupRVu0tQ40ZCtyZJ1-13" value="&lt;span style=&quot;font-size: 13px;&quot;&gt;&lt;b&gt;best.pt&lt;/b&gt;&lt;/span&gt;" style="rounded=1;whiteSpace=wrap;html=1;strokeColor=none;" vertex="1" parent="WIyWlLk6GJQsqaUBKTNV-1">
          <mxGeometry x="509" y="645" width="60" height="30" as="geometry" />
        </mxCell>
        <mxCell id="qVBupRVu0tQ40ZCtyZJ1-14" value="&lt;b&gt;model_trainer_artifact&lt;/b&gt;" style="whiteSpace=wrap;html=1;fillColor=#FFFF99;strokeColor=#d6b656;rounded=1;" vertex="1" parent="WIyWlLk6GJQsqaUBKTNV-1">
          <mxGeometry x="680" y="740" width="139.94" height="40" as="geometry" />
        </mxCell>
        <mxCell id="qVBupRVu0tQ40ZCtyZJ1-15" value="&lt;span style=&quot;font-size: 13px;&quot;&gt;&lt;b&gt;trained_model_file_path&lt;/b&gt;&lt;/span&gt;" style="rounded=1;whiteSpace=wrap;html=1;strokeColor=none;" vertex="1" parent="WIyWlLk6GJQsqaUBKTNV-1">
          <mxGeometry x="490" y="750" width="108.75" height="30" as="geometry" />
        </mxCell>
        <mxCell id="qVBupRVu0tQ40ZCtyZJ1-18" value="&lt;font size=&quot;1&quot; color=&quot;#ff0000&quot; style=&quot;&quot;&gt;&lt;b style=&quot;font-size: 18px;&quot;&gt;ISD_Model_Trainer_Workflow&lt;/b&gt;&lt;/font&gt;" style="rounded=1;whiteSpace=wrap;html=1;strokeColor=none;" vertex="1" parent="WIyWlLk6GJQsqaUBKTNV-1">
          <mxGeometry x="604.97" y="270" width="290" height="30" as="geometry" />
        </mxCell>
        <mxCell id="qVBupRVu0tQ40ZCtyZJ1-19" value="&lt;b&gt;model_trainer_config&lt;/b&gt;" style="rounded=1;whiteSpace=wrap;html=1;strokeWidth=1;fillColor=#FFFF99;strokeColor=#d6b656;shadow=0;glass=0;flipV=1;" vertex="1" parent="WIyWlLk6GJQsqaUBKTNV-1">
          <mxGeometry x="680" y="392.9" width="132.44" height="34.1" as="geometry" />
        </mxCell>
        <mxCell id="qVBupRVu0tQ40ZCtyZJ1-20" value="" style="endArrow=classic;html=1;rounded=0;flowAnimation=1;strokeColor=#006600;strokeWidth=2;" edge="1" parent="WIyWlLk6GJQsqaUBKTNV-1">
          <mxGeometry width="50" height="50" relative="1" as="geometry">
            <mxPoint x="729" y="630" as="sourcePoint" />
            <mxPoint x="579" y="630" as="targetPoint" />
          </mxGeometry>
        </mxCell>
        <mxCell id="qVBupRVu0tQ40ZCtyZJ1-22" value="&lt;b&gt;To be continue to model_pusher component&lt;/b&gt;" style="whiteSpace=wrap;html=1;fillColor=#f8cecc;strokeColor=#b85450;rounded=1;" vertex="1" parent="WIyWlLk6GJQsqaUBKTNV-1">
          <mxGeometry x="685.72" y="850" width="110" height="60" as="geometry" />
        </mxCell>
        <mxCell id="qVBupRVu0tQ40ZCtyZJ1-23" value="" style="edgeStyle=entityRelationEdgeStyle;startArrow=none;endArrow=none;segment=10;curved=1;sourcePerimeterSpacing=0;targetPerimeterSpacing=0;rounded=0;strokeColor=#994C00;strokeWidth=2;" edge="1" parent="WIyWlLk6GJQsqaUBKTNV-1">
          <mxGeometry relative="1" as="geometry">
            <mxPoint x="629" y="352" as="sourcePoint" />
            <mxPoint x="712" y="394" as="targetPoint" />
            <Array as="points">
              <mxPoint x="792" y="494" />
              <mxPoint x="662" y="349" />
              <mxPoint x="802" y="494" />
              <mxPoint x="802" y="484" />
            </Array>
          </mxGeometry>
        </mxCell>
        <mxCell id="qVBupRVu0tQ40ZCtyZJ1-24" value="" style="edgeStyle=entityRelationEdgeStyle;startArrow=none;endArrow=none;segment=10;curved=1;sourcePerimeterSpacing=0;targetPerimeterSpacing=0;rounded=0;exitX=0.25;exitY=1;exitDx=0;exitDy=0;strokeColor=#990099;strokeWidth=2;" edge="1" parent="WIyWlLk6GJQsqaUBKTNV-1" source="qVBupRVu0tQ40ZCtyZJ1-19" target="qVBupRVu0tQ40ZCtyZJ1-4">
          <mxGeometry relative="1" as="geometry">
            <mxPoint x="701" y="459" as="sourcePoint" />
            <mxPoint x="659" y="478" as="targetPoint" />
            <Array as="points">
              <mxPoint x="850" y="724" />
            </Array>
          </mxGeometry>
        </mxCell>
        <mxCell id="qVBupRVu0tQ40ZCtyZJ1-25" value="" style="edgeStyle=entityRelationEdgeStyle;startArrow=none;endArrow=none;segment=10;curved=1;sourcePerimeterSpacing=0;targetPerimeterSpacing=0;rounded=0;strokeColor=#009999;strokeWidth=2;" edge="1" parent="WIyWlLk6GJQsqaUBKTNV-1">
          <mxGeometry relative="1" as="geometry">
            <mxPoint x="629" y="387" as="sourcePoint" />
            <mxPoint x="680" y="409" as="targetPoint" />
            <Array as="points">
              <mxPoint x="760" y="509" />
              <mxPoint x="630" y="364" />
              <mxPoint x="770" y="509" />
              <mxPoint x="770" y="499" />
            </Array>
          </mxGeometry>
        </mxCell>
        <mxCell id="qVBupRVu0tQ40ZCtyZJ1-26" value="" style="edgeStyle=entityRelationEdgeStyle;startArrow=none;endArrow=none;segment=10;curved=1;sourcePerimeterSpacing=0;targetPerimeterSpacing=0;rounded=0;strokeColor=#006600;strokeWidth=2;exitX=1;exitY=0.5;exitDx=0;exitDy=0;entryX=0;entryY=0.75;entryDx=0;entryDy=0;" edge="1" parent="WIyWlLk6GJQsqaUBKTNV-1" source="qVBupRVu0tQ40ZCtyZJ1-3" target="qVBupRVu0tQ40ZCtyZJ1-19">
          <mxGeometry relative="1" as="geometry">
            <mxPoint x="639" y="397" as="sourcePoint" />
            <mxPoint x="690" y="419" as="targetPoint" />
            <Array as="points">
              <mxPoint x="770" y="519" />
              <mxPoint x="640" y="374" />
              <mxPoint x="780" y="519" />
              <mxPoint x="780" y="509" />
            </Array>
          </mxGeometry>
        </mxCell>
        <mxCell id="qVBupRVu0tQ40ZCtyZJ1-31" value="" style="edgeStyle=orthogonalEdgeStyle;rounded=1;orthogonalLoop=1;jettySize=auto;html=1;flowAnimation=1;strokeColor=#FF0080;strokeWidth=2;exitX=0.5;exitY=1;exitDx=0;exitDy=0;" edge="1" parent="WIyWlLk6GJQsqaUBKTNV-1">
          <mxGeometry relative="1" as="geometry">
            <mxPoint x="740.7199999999998" y="589" as="sourcePoint" />
            <mxPoint x="740.7199999999998" y="736.31" as="targetPoint" />
          </mxGeometry>
        </mxCell>
        <mxCell id="qVBupRVu0tQ40ZCtyZJ1-45" value="" style="image;aspect=fixed;html=1;points=[];align=center;fontSize=12;image=img/lib/azure2/general/File.svg;" vertex="1" parent="WIyWlLk6GJQsqaUBKTNV-1">
          <mxGeometry x="521" y="597.12" width="39.36" height="48.5" as="geometry" />
        </mxCell>
        <mxCell id="qVBupRVu0tQ40ZCtyZJ1-52" value="" style="edgeStyle=entityRelationEdgeStyle;startArrow=none;endArrow=none;segment=10;curved=1;sourcePerimeterSpacing=0;targetPerimeterSpacing=0;rounded=0;strokeColor=#006600;strokeWidth=2;entryX=0;entryY=0.75;entryDx=0;entryDy=0;flowAnimation=1;" edge="1" parent="WIyWlLk6GJQsqaUBKTNV-1">
          <mxGeometry relative="1" as="geometry">
            <mxPoint x="628" y="765" as="sourcePoint" />
            <mxPoint x="676" y="765" as="targetPoint" />
            <Array as="points">
              <mxPoint x="636" y="765" />
              <mxPoint x="776" y="888" />
              <mxPoint x="646" y="743" />
              <mxPoint x="786" y="888" />
              <mxPoint x="786" y="878" />
            </Array>
          </mxGeometry>
        </mxCell>
        <mxCell id="qVBupRVu0tQ40ZCtyZJ1-53" value="" style="edgeStyle=orthogonalEdgeStyle;rounded=1;orthogonalLoop=1;jettySize=auto;html=1;flowAnimation=1;strokeColor=#FF0080;strokeWidth=2;" edge="1" parent="WIyWlLk6GJQsqaUBKTNV-1">
          <mxGeometry relative="1" as="geometry">
            <mxPoint x="739" y="783" as="sourcePoint" />
            <mxPoint x="739.7199999999998" y="851.31" as="targetPoint" />
          </mxGeometry>
        </mxCell>
      </root>
    </mxGraphModel>
  </diagram>
  <diagram name="Page-2" id="bf5nBjF9KYC4StDarAz9">
    <mxGraphModel dx="2534" dy="738" grid="1" gridSize="10" guides="1" tooltips="1" connect="1" arrows="1" fold="1" page="1" pageScale="1" pageWidth="1100" pageHeight="850" math="0" shadow="0">
      <root>
        <mxCell id="0" />
        <mxCell id="1" parent="0" />
        <mxCell id="nSRVxIwpDMMca3vvs-4J-1" value="" style="edgeStyle=orthogonalEdgeStyle;rounded=1;orthogonalLoop=1;jettySize=auto;html=1;flowAnimation=1;strokeColor=#FF0080;strokeWidth=2;" edge="1" parent="1" source="nSRVxIwpDMMca3vvs-4J-6">
          <mxGeometry relative="1" as="geometry">
            <mxPoint x="357.56" y="565" as="targetPoint" />
            <Array as="points">
              <mxPoint x="358" y="540" />
              <mxPoint x="358" y="540" />
            </Array>
          </mxGeometry>
        </mxCell>
        <mxCell id="nSRVxIwpDMMca3vvs-4J-2" value="&lt;b&gt;splitting_data&lt;/b&gt;" style="rounded=1;whiteSpace=wrap;html=1;fillColor=#6666FF;fontColor=#ffffff;strokeColor=#3700CC;flipH=1;container=1;" vertex="1" parent="1">
          <mxGeometry x="297.56" y="569" width="132.44" height="31" as="geometry" />
        </mxCell>
        <mxCell id="nSRVxIwpDMMca3vvs-4J-3" value="&lt;b&gt;df_train&lt;/b&gt;" style="whiteSpace=wrap;html=1;fillColor=#6666FF;strokeColor=#3700CC;fontColor=#ffffff;rounded=1;flipH=1;" vertex="1" parent="1">
          <mxGeometry x="220" y="670" width="120" height="30" as="geometry" />
        </mxCell>
        <mxCell id="nSRVxIwpDMMca3vvs-4J-4" value="&lt;b&gt;prepare data transformatoin artifacts&lt;/b&gt;" style="whiteSpace=wrap;html=1;fillColor=#6666FF;strokeColor=#3700CC;fontColor=#ffffff;rounded=1;" vertex="1" parent="1">
          <mxGeometry x="249" y="816" width="220" height="35" as="geometry" />
        </mxCell>
        <mxCell id="nSRVxIwpDMMca3vvs-4J-5" value="&lt;font size=&quot;1&quot; color=&quot;#ff0000&quot; style=&quot;&quot;&gt;&lt;b style=&quot;font-size: 18px;&quot;&gt;NER_Data_Transformation_Workflow&lt;/b&gt;&lt;/font&gt;" style="rounded=1;whiteSpace=wrap;html=1;strokeColor=none;" vertex="1" parent="1">
          <mxGeometry x="240" y="280" width="290" height="30" as="geometry" />
        </mxCell>
        <mxCell id="nSRVxIwpDMMca3vvs-4J-6" value="&lt;b&gt;data_transformation_config&lt;/b&gt;" style="rounded=1;whiteSpace=wrap;html=1;strokeWidth=1;fillColor=#FFFF99;strokeColor=#d6b656;shadow=0;glass=0;flipV=1;" vertex="1" parent="1">
          <mxGeometry x="284.81" y="475.9" width="172.44" height="34.1" as="geometry" />
        </mxCell>
        <mxCell id="nSRVxIwpDMMca3vvs-4J-7" value="" style="edgeStyle=orthogonalEdgeStyle;rounded=1;orthogonalLoop=1;jettySize=auto;html=1;flowAnimation=0;strokeColor=#CC0066;strokeWidth=2;" edge="1" parent="1" source="nSRVxIwpDMMca3vvs-4J-37" target="nSRVxIwpDMMca3vvs-4J-8">
          <mxGeometry relative="1" as="geometry">
            <mxPoint x="361" y="922" as="sourcePoint" />
            <Array as="points">
              <mxPoint x="361" y="982" />
              <mxPoint x="361" y="982" />
            </Array>
          </mxGeometry>
        </mxCell>
        <mxCell id="nSRVxIwpDMMca3vvs-4J-8" value="&lt;b&gt;To be continue to model_training component&lt;/b&gt;" style="whiteSpace=wrap;html=1;fillColor=#f8cecc;strokeColor=#b85450;rounded=1;" vertex="1" parent="1">
          <mxGeometry x="280" y="1012" width="150" height="60" as="geometry" />
        </mxCell>
        <mxCell id="nSRVxIwpDMMca3vvs-4J-9" value="" style="edgeStyle=segmentEdgeStyle;endArrow=classic;html=1;curved=0;rounded=1;endSize=8;startSize=8;flowAnimation=1;strokeWidth=2;strokeColor=#CC0066;" edge="1" parent="1">
          <mxGeometry width="50" height="50" relative="1" as="geometry">
            <mxPoint x="621" y="416" as="sourcePoint" />
            <mxPoint x="461" y="496" as="targetPoint" />
            <Array as="points">
              <mxPoint x="621" y="496" />
              <mxPoint x="461" y="496" />
            </Array>
          </mxGeometry>
        </mxCell>
        <mxCell id="nSRVxIwpDMMca3vvs-4J-10" value="&lt;b&gt;Data Transformation Config&lt;/b&gt;" style="rounded=1;whiteSpace=wrap;html=1;strokeWidth=4;fillColor=#FFFFFF;strokeColor=#d6b656;shadow=0;glass=0;flipV=1;" vertex="1" parent="1">
          <mxGeometry x="538" y="377.9" width="172.44" height="34.1" as="geometry" />
        </mxCell>
        <mxCell id="nSRVxIwpDMMca3vvs-4J-11" value="data_transformation_dir" style="whiteSpace=wrap;html=1;rounded=1;arcSize=50;align=center;verticalAlign=middle;strokeWidth=1;autosize=1;spacing=4;treeFolding=1;treeMoving=1;newEdgeStyle={&quot;edgeStyle&quot;:&quot;entityRelationEdgeStyle&quot;,&quot;startArrow&quot;:&quot;none&quot;,&quot;endArrow&quot;:&quot;none&quot;,&quot;segment&quot;:10,&quot;curved&quot;:1,&quot;sourcePerimeterSpacing&quot;:0,&quot;targetPerimeterSpacing&quot;:0};strokeColor=none;" vertex="1" parent="1">
          <mxGeometry x="757" y="250" width="135" height="30" as="geometry" />
        </mxCell>
        <mxCell id="nSRVxIwpDMMca3vvs-4J-12" value="" style="edgeStyle=entityRelationEdgeStyle;startArrow=none;endArrow=none;segment=10;curved=1;sourcePerimeterSpacing=0;targetPerimeterSpacing=0;rounded=0;strokeWidth=2;strokeColor=#9933FF;exitX=0.711;exitY=1.079;exitDx=0;exitDy=0;exitPerimeter=0;" edge="1" parent="1" target="nSRVxIwpDMMca3vvs-4J-11">
          <mxGeometry relative="1" as="geometry">
            <mxPoint x="662.60484" y="375.2060999999999" as="sourcePoint" />
            <Array as="points">
              <mxPoint x="651" y="366" />
              <mxPoint x="723" y="346" />
            </Array>
          </mxGeometry>
        </mxCell>
        <mxCell id="nSRVxIwpDMMca3vvs-4J-13" value="unique_labels_path" style="whiteSpace=wrap;html=1;rounded=1;arcSize=50;align=center;verticalAlign=middle;strokeWidth=1;autosize=1;spacing=4;treeFolding=1;treeMoving=1;newEdgeStyle={&quot;edgeStyle&quot;:&quot;entityRelationEdgeStyle&quot;,&quot;startArrow&quot;:&quot;none&quot;,&quot;endArrow&quot;:&quot;none&quot;,&quot;segment&quot;:10,&quot;curved&quot;:1,&quot;sourcePerimeterSpacing&quot;:0,&quot;targetPerimeterSpacing&quot;:0};strokeColor=none;" vertex="1" parent="1">
          <mxGeometry x="757" y="509" width="150" height="30" as="geometry" />
        </mxCell>
        <mxCell id="nSRVxIwpDMMca3vvs-4J-14" value="" style="edgeStyle=entityRelationEdgeStyle;startArrow=none;endArrow=none;segment=10;curved=1;sourcePerimeterSpacing=0;targetPerimeterSpacing=0;rounded=0;exitX=0.692;exitY=0.023;exitDx=0;exitDy=0;strokeWidth=2;strokeColor=#FF3333;exitPerimeter=0;" edge="1" parent="1" target="nSRVxIwpDMMca3vvs-4J-13">
          <mxGeometry relative="1" as="geometry">
            <mxPoint x="659.3284799999999" y="411.21569999999986" as="sourcePoint" />
            <Array as="points">
              <mxPoint x="661" y="410" />
              <mxPoint x="690" y="487.81" />
              <mxPoint x="680" y="487.81" />
              <mxPoint x="742" y="467.81" />
            </Array>
          </mxGeometry>
        </mxCell>
        <mxCell id="nSRVxIwpDMMca3vvs-4J-15" value="df_test_path" style="whiteSpace=wrap;html=1;rounded=1;arcSize=50;align=center;verticalAlign=middle;strokeWidth=1;autosize=1;spacing=4;treeFolding=1;treeMoving=1;newEdgeStyle={&quot;edgeStyle&quot;:&quot;entityRelationEdgeStyle&quot;,&quot;startArrow&quot;:&quot;none&quot;,&quot;endArrow&quot;:&quot;none&quot;,&quot;segment&quot;:10,&quot;curved&quot;:1,&quot;sourcePerimeterSpacing&quot;:0,&quot;targetPerimeterSpacing&quot;:0};strokeColor=none;" vertex="1" parent="1">
          <mxGeometry x="757" y="470.95" width="110" height="30" as="geometry" />
        </mxCell>
        <mxCell id="nSRVxIwpDMMca3vvs-4J-16" value="" style="edgeStyle=entityRelationEdgeStyle;startArrow=none;endArrow=none;segment=10;curved=1;sourcePerimeterSpacing=0;targetPerimeterSpacing=0;rounded=0;exitX=0.846;exitY=-0.023;exitDx=0;exitDy=0;exitPerimeter=0;strokeWidth=2;strokeColor=#004C99;" edge="1" parent="1" target="nSRVxIwpDMMca3vvs-4J-15">
          <mxGeometry relative="1" as="geometry">
            <mxPoint x="685.8842400000001" y="412.7842999999999" as="sourcePoint" />
            <Array as="points">
              <mxPoint x="700" y="442.81" />
              <mxPoint x="690" y="452.63" />
              <mxPoint x="680" y="452.63" />
              <mxPoint x="742" y="432.63" />
            </Array>
          </mxGeometry>
        </mxCell>
        <mxCell id="nSRVxIwpDMMca3vvs-4J-17" value="df_val_path" style="whiteSpace=wrap;html=1;rounded=1;arcSize=50;align=center;verticalAlign=middle;strokeWidth=1;autosize=1;spacing=4;treeFolding=1;treeMoving=1;newEdgeStyle={&quot;edgeStyle&quot;:&quot;entityRelationEdgeStyle&quot;,&quot;startArrow&quot;:&quot;none&quot;,&quot;endArrow&quot;:&quot;none&quot;,&quot;segment&quot;:10,&quot;curved&quot;:1,&quot;sourcePerimeterSpacing&quot;:0,&quot;targetPerimeterSpacing&quot;:0};strokeColor=none;" vertex="1" parent="1">
          <mxGeometry x="758" y="432.81" width="106" height="30" as="geometry" />
        </mxCell>
        <mxCell id="nSRVxIwpDMMca3vvs-4J-18" value="" style="edgeStyle=entityRelationEdgeStyle;startArrow=none;endArrow=none;segment=10;curved=1;sourcePerimeterSpacing=0;targetPerimeterSpacing=0;rounded=0;exitX=0.957;exitY=0;exitDx=0;exitDy=0;exitPerimeter=0;strokeWidth=2;strokeColor=#99004D;" edge="1" parent="1" target="nSRVxIwpDMMca3vvs-4J-17">
          <mxGeometry relative="1" as="geometry">
            <mxPoint x="701.0250799999999" y="411.9999999999999" as="sourcePoint" />
            <Array as="points">
              <mxPoint x="696" y="409.71000000000004" />
              <mxPoint x="686" y="419.53" />
              <mxPoint x="676" y="419.53" />
              <mxPoint x="738" y="399.53" />
            </Array>
          </mxGeometry>
        </mxCell>
        <mxCell id="nSRVxIwpDMMca3vvs-4J-19" value="df_train_path" style="whiteSpace=wrap;html=1;rounded=1;arcSize=50;align=center;verticalAlign=middle;strokeWidth=1;autosize=1;spacing=4;treeFolding=1;treeMoving=1;newEdgeStyle={&quot;edgeStyle&quot;:&quot;entityRelationEdgeStyle&quot;,&quot;startArrow&quot;:&quot;none&quot;,&quot;endArrow&quot;:&quot;none&quot;,&quot;segment&quot;:10,&quot;curved&quot;:1,&quot;sourcePerimeterSpacing&quot;:0,&quot;targetPerimeterSpacing&quot;:0};strokeColor=none;" vertex="1" parent="1">
          <mxGeometry x="758" y="399" width="110" height="30" as="geometry" />
        </mxCell>
        <mxCell id="nSRVxIwpDMMca3vvs-4J-20" value="" style="edgeStyle=entityRelationEdgeStyle;startArrow=none;endArrow=none;segment=10;curved=1;sourcePerimeterSpacing=0;targetPerimeterSpacing=0;rounded=0;exitX=1;exitY=0.75;exitDx=0;exitDy=0;strokeWidth=2;strokeColor=#660000;" edge="1" parent="1" target="nSRVxIwpDMMca3vvs-4J-19">
          <mxGeometry relative="1" as="geometry">
            <mxPoint x="713.44" y="398.475" as="sourcePoint" />
            <Array as="points">
              <mxPoint x="701" y="365.09000000000003" />
              <mxPoint x="722" y="405" />
              <mxPoint x="691" y="374.90999999999997" />
              <mxPoint x="681" y="374.90999999999997" />
              <mxPoint x="743" y="354.90999999999997" />
            </Array>
          </mxGeometry>
        </mxCell>
        <mxCell id="nSRVxIwpDMMca3vvs-4J-21" value="labels_to_ids_path" style="whiteSpace=wrap;html=1;rounded=1;arcSize=50;align=center;verticalAlign=middle;strokeWidth=1;autosize=1;spacing=4;treeFolding=1;treeMoving=1;newEdgeStyle={&quot;edgeStyle&quot;:&quot;entityRelationEdgeStyle&quot;,&quot;startArrow&quot;:&quot;none&quot;,&quot;endArrow&quot;:&quot;none&quot;,&quot;segment&quot;:10,&quot;curved&quot;:1,&quot;sourcePerimeterSpacing&quot;:0,&quot;targetPerimeterSpacing&quot;:0};strokeColor=none;" vertex="1" parent="1">
          <mxGeometry x="757" y="288" width="140" height="30" as="geometry" />
        </mxCell>
        <mxCell id="nSRVxIwpDMMca3vvs-4J-22" value="" style="edgeStyle=entityRelationEdgeStyle;startArrow=none;endArrow=none;segment=10;curved=1;sourcePerimeterSpacing=0;targetPerimeterSpacing=0;rounded=0;strokeWidth=2;strokeColor=#994C00;exitX=0.813;exitY=1.103;exitDx=0;exitDy=0;exitPerimeter=0;" edge="1" parent="1" target="nSRVxIwpDMMca3vvs-4J-21">
          <mxGeometry relative="1" as="geometry">
            <mxPoint x="680.19372" y="374.3876999999999" as="sourcePoint" />
            <Array as="points">
              <mxPoint x="661" y="403" />
              <mxPoint x="733" y="383" />
            </Array>
          </mxGeometry>
        </mxCell>
        <mxCell id="nSRVxIwpDMMca3vvs-4J-23" value="ids_to_labels_path" style="whiteSpace=wrap;html=1;rounded=1;arcSize=50;align=center;verticalAlign=middle;strokeWidth=1;autosize=1;spacing=4;treeFolding=1;treeMoving=1;newEdgeStyle={&quot;edgeStyle&quot;:&quot;entityRelationEdgeStyle&quot;,&quot;startArrow&quot;:&quot;none&quot;,&quot;endArrow&quot;:&quot;none&quot;,&quot;segment&quot;:10,&quot;curved&quot;:1,&quot;sourcePerimeterSpacing&quot;:0,&quot;targetPerimeterSpacing&quot;:0};strokeColor=none;" vertex="1" parent="1">
          <mxGeometry x="754.5" y="329" width="140" height="30" as="geometry" />
        </mxCell>
        <mxCell id="nSRVxIwpDMMca3vvs-4J-24" value="" style="edgeStyle=entityRelationEdgeStyle;startArrow=none;endArrow=none;segment=10;curved=1;sourcePerimeterSpacing=0;targetPerimeterSpacing=0;rounded=0;strokeWidth=2;strokeColor=#006600;exitX=0.948;exitY=1.009;exitDx=0;exitDy=0;exitPerimeter=0;" edge="1" parent="1" target="nSRVxIwpDMMca3vvs-4J-23">
          <mxGeometry relative="1" as="geometry">
            <mxPoint x="703.4731200000001" y="377.59309999999994" as="sourcePoint" />
            <Array as="points">
              <mxPoint x="711" y="370" />
              <mxPoint x="671" y="433" />
              <mxPoint x="743" y="413" />
            </Array>
          </mxGeometry>
        </mxCell>
        <mxCell id="nSRVxIwpDMMca3vvs-4J-25" value="ids_to_labels_gcp_path" style="whiteSpace=wrap;html=1;rounded=1;arcSize=50;align=center;verticalAlign=middle;strokeWidth=1;autosize=1;spacing=4;treeFolding=1;treeMoving=1;newEdgeStyle={&quot;edgeStyle&quot;:&quot;entityRelationEdgeStyle&quot;,&quot;startArrow&quot;:&quot;none&quot;,&quot;endArrow&quot;:&quot;none&quot;,&quot;segment&quot;:10,&quot;curved&quot;:1,&quot;sourcePerimeterSpacing&quot;:0,&quot;targetPerimeterSpacing&quot;:0};strokeColor=none;" vertex="1" parent="1">
          <mxGeometry x="758" y="360" width="170" height="30" as="geometry" />
        </mxCell>
        <mxCell id="nSRVxIwpDMMca3vvs-4J-26" value="" style="edgeStyle=entityRelationEdgeStyle;startArrow=none;endArrow=none;segment=10;curved=1;sourcePerimeterSpacing=0;targetPerimeterSpacing=0;rounded=0;strokeWidth=2;strokeColor=#666600;exitX=0.948;exitY=1.009;exitDx=0;exitDy=0;exitPerimeter=0;" edge="1" parent="1" target="nSRVxIwpDMMca3vvs-4J-25">
          <mxGeometry relative="1" as="geometry">
            <mxPoint x="712.5" y="395" as="sourcePoint" />
            <Array as="points">
              <mxPoint x="720.5" y="387" />
              <mxPoint x="680.5" y="450" />
              <mxPoint x="752.5" y="430" />
            </Array>
          </mxGeometry>
        </mxCell>
        <mxCell id="nSRVxIwpDMMca3vvs-4J-27" value="&lt;b&gt;Data Ingestion Artifacts&lt;/b&gt;" style="rounded=1;whiteSpace=wrap;html=1;strokeWidth=4;fillColor=#FFFFFF;strokeColor=#d6b656;shadow=0;glass=0;flipV=1;" vertex="1" parent="1">
          <mxGeometry x="91" y="377.9" width="172.44" height="34.1" as="geometry" />
        </mxCell>
        <mxCell id="nSRVxIwpDMMca3vvs-4J-28" value="zip_data_file_path" style="whiteSpace=wrap;html=1;rounded=1;arcSize=50;align=center;verticalAlign=middle;strokeWidth=1;autosize=1;spacing=4;treeFolding=1;treeMoving=1;newEdgeStyle={&quot;edgeStyle&quot;:&quot;entityRelationEdgeStyle&quot;,&quot;startArrow&quot;:&quot;none&quot;,&quot;endArrow&quot;:&quot;none&quot;,&quot;segment&quot;:10,&quot;curved&quot;:1,&quot;sourcePerimeterSpacing&quot;:0,&quot;targetPerimeterSpacing&quot;:0};strokeColor=none;" vertex="1" parent="1">
          <mxGeometry x="-59" y="368" width="109" height="30" as="geometry" />
        </mxCell>
        <mxCell id="nSRVxIwpDMMca3vvs-4J-29" value="" style="edgeStyle=entityRelationEdgeStyle;startArrow=none;endArrow=none;segment=10;curved=1;sourcePerimeterSpacing=0;targetPerimeterSpacing=0;rounded=0;exitX=0;exitY=0.5;exitDx=0;exitDy=0;strokeColor=#994C00;strokeWidth=2;" edge="1" parent="1" source="nSRVxIwpDMMca3vvs-4J-27" target="nSRVxIwpDMMca3vvs-4J-28">
          <mxGeometry relative="1" as="geometry">
            <mxPoint x="-9" y="500" as="sourcePoint" />
          </mxGeometry>
        </mxCell>
        <mxCell id="nSRVxIwpDMMca3vvs-4J-30" value="csv_data_file_path" style="whiteSpace=wrap;html=1;rounded=1;arcSize=50;align=center;verticalAlign=middle;strokeWidth=1;autosize=1;spacing=4;treeFolding=1;treeMoving=1;newEdgeStyle={&quot;edgeStyle&quot;:&quot;entityRelationEdgeStyle&quot;,&quot;startArrow&quot;:&quot;none&quot;,&quot;endArrow&quot;:&quot;none&quot;,&quot;segment&quot;:10,&quot;curved&quot;:1,&quot;sourcePerimeterSpacing&quot;:0,&quot;targetPerimeterSpacing&quot;:0};strokeColor=none;" vertex="1" parent="1">
          <mxGeometry x="-59" y="399" width="108" height="30" as="geometry" />
        </mxCell>
        <mxCell id="nSRVxIwpDMMca3vvs-4J-31" value="" style="edgeStyle=entityRelationEdgeStyle;startArrow=none;endArrow=none;segment=10;curved=1;sourcePerimeterSpacing=0;targetPerimeterSpacing=0;rounded=0;exitX=0;exitY=0.5;exitDx=0;exitDy=0;strokeColor=#990099;strokeWidth=2;" edge="1" parent="1" source="nSRVxIwpDMMca3vvs-4J-27" target="nSRVxIwpDMMca3vvs-4J-30">
          <mxGeometry relative="1" as="geometry">
            <mxPoint x="81" y="400" as="sourcePoint" />
          </mxGeometry>
        </mxCell>
        <mxCell id="nSRVxIwpDMMca3vvs-4J-32" value="" style="edgeStyle=segmentEdgeStyle;endArrow=classic;html=1;curved=0;rounded=0;endSize=8;startSize=8;exitX=0.5;exitY=1;exitDx=0;exitDy=0;strokeWidth=2;strokeColor=#CC0066;flowAnimation=1;" edge="1" parent="1">
          <mxGeometry width="50" height="50" relative="1" as="geometry">
            <mxPoint x="190.22000000000003" y="413.9999999999999" as="sourcePoint" />
            <mxPoint x="284" y="491" as="targetPoint" />
            <Array as="points">
              <mxPoint x="190" y="490" />
            </Array>
          </mxGeometry>
        </mxCell>
        <mxCell id="nSRVxIwpDMMca3vvs-4J-33" value="" style="edgeStyle=segmentEdgeStyle;endArrow=classic;html=1;curved=0;rounded=0;endSize=8;startSize=8;exitX=0.437;exitY=-0.012;exitDx=0;exitDy=0;exitPerimeter=0;strokeColor=#CC0066;strokeWidth=2;flowAnimation=1;" edge="1" parent="1">
          <mxGeometry width="50" height="50" relative="1" as="geometry">
            <mxPoint x="175.35627999999997" y="411.9992" as="sourcePoint" />
            <mxPoint x="49" y="489.59000000000003" as="targetPoint" />
            <Array as="points">
              <mxPoint x="175" y="490" />
            </Array>
          </mxGeometry>
        </mxCell>
        <mxCell id="nSRVxIwpDMMca3vvs-4J-34" value="" style="shape=image;html=1;verticalAlign=top;verticalLabelPosition=bottom;labelBackgroundColor=#ffffff;imageAspect=0;aspect=fixed;image=https://cdn3.iconfinder.com/data/icons/document-icons-2/30/647702-excel-128.png;rounded=1;" vertex="1" parent="1">
          <mxGeometry x="4" y="470" width="40" height="40" as="geometry" />
        </mxCell>
        <mxCell id="nSRVxIwpDMMca3vvs-4J-35" value="&lt;font style=&quot;font-size: 13px;&quot;&gt;&lt;b&gt;ner.csv&lt;/b&gt;&lt;/font&gt;" style="rounded=1;whiteSpace=wrap;html=1;strokeColor=none;" vertex="1" parent="1">
          <mxGeometry x="14" y="514" width="30" height="15" as="geometry" />
        </mxCell>
        <mxCell id="nSRVxIwpDMMca3vvs-4J-36" value="" style="edgeStyle=segmentEdgeStyle;endArrow=classic;html=1;curved=0;rounded=0;endSize=8;startSize=8;entryX=0;entryY=0.5;entryDx=0;entryDy=0;strokeWidth=2;flowAnimation=1;" edge="1" parent="1" target="nSRVxIwpDMMca3vvs-4J-2">
          <mxGeometry width="50" height="50" relative="1" as="geometry">
            <mxPoint x="20" y="540" as="sourcePoint" />
            <mxPoint x="113.80000000000001" y="586" as="targetPoint" />
            <Array as="points">
              <mxPoint x="20" y="585" />
            </Array>
          </mxGeometry>
        </mxCell>
        <mxCell id="nSRVxIwpDMMca3vvs-4J-37" value="&lt;b&gt;data_transformation_artifact&lt;/b&gt;" style="whiteSpace=wrap;html=1;fillColor=#FFFF99;strokeColor=#d6b656;rounded=1;" vertex="1" parent="1">
          <mxGeometry x="270" y="922" width="167.5" height="40" as="geometry" />
        </mxCell>
        <mxCell id="nSRVxIwpDMMca3vvs-4J-38" value="&lt;b&gt;df_val&lt;/b&gt;" style="whiteSpace=wrap;html=1;fillColor=#6666FF;strokeColor=#3700CC;fontColor=#ffffff;rounded=1;flipH=1;" vertex="1" parent="1">
          <mxGeometry x="370" y="670" width="120" height="30" as="geometry" />
        </mxCell>
        <mxCell id="nSRVxIwpDMMca3vvs-4J-39" value="&lt;b&gt;df_test&lt;/b&gt;" style="whiteSpace=wrap;html=1;fillColor=#6666FF;strokeColor=#3700CC;fontColor=#ffffff;rounded=1;flipH=1;" vertex="1" parent="1">
          <mxGeometry x="522" y="670" width="119.94" height="30" as="geometry" />
        </mxCell>
        <mxCell id="nSRVxIwpDMMca3vvs-4J-40" value="&lt;b&gt;unique_labels&lt;/b&gt;" style="whiteSpace=wrap;html=1;fillColor=#6666FF;strokeColor=#3700CC;fontColor=#ffffff;rounded=1;flipH=1;" vertex="1" parent="1">
          <mxGeometry x="670" y="670" width="119.94" height="30" as="geometry" />
        </mxCell>
        <mxCell id="nSRVxIwpDMMca3vvs-4J-41" value="&lt;b&gt;ids_to_labels&lt;/b&gt;" style="whiteSpace=wrap;html=1;fillColor=#6666FF;strokeColor=#3700CC;fontColor=#ffffff;rounded=1;flipH=1;" vertex="1" parent="1">
          <mxGeometry x="80" y="670" width="120" height="30" as="geometry" />
        </mxCell>
        <mxCell id="nSRVxIwpDMMca3vvs-4J-42" value="&lt;b&gt;labels_to_ids&lt;/b&gt;" style="whiteSpace=wrap;html=1;fillColor=#6666FF;strokeColor=#3700CC;fontColor=#ffffff;rounded=1;flipH=1;" vertex="1" parent="1">
          <mxGeometry x="-70" y="670" width="120" height="30" as="geometry" />
        </mxCell>
        <mxCell id="nSRVxIwpDMMca3vvs-4J-43" value="" style="shape=curlyBracket;whiteSpace=wrap;html=1;rounded=1;labelPosition=left;verticalLabelPosition=middle;align=right;verticalAlign=middle;rotation=90;strokeWidth=2;" vertex="1" parent="1">
          <mxGeometry x="325.44" y="262.19" width="63.63" height="747.5" as="geometry" />
        </mxCell>
        <mxCell id="nSRVxIwpDMMca3vvs-4J-44" value="" style="line;strokeWidth=2;direction=south;html=1;" vertex="1" parent="1">
          <mxGeometry x="135" y="637" width="9" height="33" as="geometry" />
        </mxCell>
        <mxCell id="nSRVxIwpDMMca3vvs-4J-45" value="" style="line;strokeWidth=2;direction=south;html=1;" vertex="1" parent="1">
          <mxGeometry x="280" y="636" width="9" height="33" as="geometry" />
        </mxCell>
        <mxCell id="nSRVxIwpDMMca3vvs-4J-46" value="" style="line;strokeWidth=2;direction=south;html=1;" vertex="1" parent="1">
          <mxGeometry x="428" y="636" width="9" height="33" as="geometry" />
        </mxCell>
        <mxCell id="nSRVxIwpDMMca3vvs-4J-47" value="" style="line;strokeWidth=2;direction=south;html=1;" vertex="1" parent="1">
          <mxGeometry x="584" y="637" width="9" height="33" as="geometry" />
        </mxCell>
        <mxCell id="nSRVxIwpDMMca3vvs-4J-48" value="" style="endArrow=classic;html=1;rounded=0;entryX=0.005;entryY=0.114;entryDx=0;entryDy=0;entryPerimeter=0;" edge="1" parent="1" target="nSRVxIwpDMMca3vvs-4J-4">
          <mxGeometry width="50" height="50" relative="1" as="geometry">
            <mxPoint x="-10" y="700" as="sourcePoint" />
            <mxPoint x="246.00000000000023" y="819" as="targetPoint" />
          </mxGeometry>
        </mxCell>
        <mxCell id="nSRVxIwpDMMca3vvs-4J-49" value="" style="endArrow=classic;html=1;rounded=0;entryX=1;entryY=0;entryDx=0;entryDy=0;exitX=0.5;exitY=1;exitDx=0;exitDy=0;" edge="1" parent="1" source="nSRVxIwpDMMca3vvs-4J-40" target="nSRVxIwpDMMca3vvs-4J-4">
          <mxGeometry width="50" height="50" relative="1" as="geometry">
            <mxPoint x="570" y="724" as="sourcePoint" />
            <mxPoint x="832.97" y="841" as="targetPoint" />
          </mxGeometry>
        </mxCell>
        <mxCell id="nSRVxIwpDMMca3vvs-4J-50" value="" style="endArrow=classic;html=1;rounded=0;entryX=0.005;entryY=0.114;entryDx=0;entryDy=0;exitX=0.5;exitY=1;exitDx=0;exitDy=0;entryPerimeter=0;" edge="1" parent="1" source="nSRVxIwpDMMca3vvs-4J-41">
          <mxGeometry width="50" height="50" relative="1" as="geometry">
            <mxPoint x="28.029999999999973" y="697" as="sourcePoint" />
            <mxPoint x="291" y="814" as="targetPoint" />
          </mxGeometry>
        </mxCell>
        <mxCell id="nSRVxIwpDMMca3vvs-4J-51" value="" style="endArrow=classic;html=1;rounded=0;exitX=0.5;exitY=1;exitDx=0;exitDy=0;exitPerimeter=0;" edge="1" parent="1" source="nSRVxIwpDMMca3vvs-4J-39">
          <mxGeometry width="50" height="50" relative="1" as="geometry">
            <mxPoint x="581.97" y="705" as="sourcePoint" />
            <mxPoint x="410" y="815" as="targetPoint" />
          </mxGeometry>
        </mxCell>
        <mxCell id="nSRVxIwpDMMca3vvs-4J-52" value="" style="endArrow=classic;html=1;rounded=0;entryX=0.005;entryY=0.114;entryDx=0;entryDy=0;exitX=0.5;exitY=1;exitDx=0;exitDy=0;entryPerimeter=0;" edge="1" parent="1" source="nSRVxIwpDMMca3vvs-4J-3">
          <mxGeometry width="50" height="50" relative="1" as="geometry">
            <mxPoint x="178" y="701" as="sourcePoint" />
            <mxPoint x="331" y="815" as="targetPoint" />
          </mxGeometry>
        </mxCell>
        <mxCell id="nSRVxIwpDMMca3vvs-4J-53" value="" style="endArrow=classic;html=1;rounded=0;entryX=0.005;entryY=0.114;entryDx=0;entryDy=0;exitX=0.5;exitY=1;exitDx=0;exitDy=0;entryPerimeter=0;" edge="1" parent="1" source="nSRVxIwpDMMca3vvs-4J-38">
          <mxGeometry width="50" height="50" relative="1" as="geometry">
            <mxPoint x="321" y="701" as="sourcePoint" />
            <mxPoint x="366" y="816" as="targetPoint" />
          </mxGeometry>
        </mxCell>
        <mxCell id="nSRVxIwpDMMca3vvs-4J-54" value="label_to_ids_path" style="whiteSpace=wrap;html=1;shape=partialRectangle;top=0;left=0;bottom=1;right=0;points=[[0,1],[1,1]];fillColor=none;align=center;verticalAlign=bottom;routingCenterY=0.5;snapToPoint=1;recursiveResize=0;autosize=1;treeFolding=1;treeMoving=1;newEdgeStyle={&quot;edgeStyle&quot;:&quot;entityRelationEdgeStyle&quot;,&quot;startArrow&quot;:&quot;none&quot;,&quot;endArrow&quot;:&quot;none&quot;,&quot;segment&quot;:10,&quot;curved&quot;:1,&quot;sourcePerimeterSpacing&quot;:0,&quot;targetPerimeterSpacing&quot;:0};strokeColor=none;" vertex="1" parent="1">
          <mxGeometry x="516.97" y="827" width="113.03" height="30" as="geometry" />
        </mxCell>
        <mxCell id="nSRVxIwpDMMca3vvs-4J-55" value="" style="edgeStyle=entityRelationEdgeStyle;startArrow=none;endArrow=none;segment=10;curved=1;sourcePerimeterSpacing=0;targetPerimeterSpacing=0;rounded=0;strokeWidth=2;strokeColor=#663300;" edge="1" parent="1" target="nSRVxIwpDMMca3vvs-4J-54">
          <mxGeometry relative="1" as="geometry">
            <mxPoint x="414" y="916" as="sourcePoint" />
            <Array as="points">
              <mxPoint x="396.5" y="896" />
            </Array>
          </mxGeometry>
        </mxCell>
        <mxCell id="nSRVxIwpDMMca3vvs-4J-56" value="ids_to_labels_path" style="whiteSpace=wrap;html=1;shape=partialRectangle;top=0;left=0;bottom=1;right=0;points=[[0,1],[1,1]];fillColor=none;align=center;verticalAlign=bottom;routingCenterY=0.5;snapToPoint=1;recursiveResize=0;autosize=1;treeFolding=1;treeMoving=1;newEdgeStyle={&quot;edgeStyle&quot;:&quot;entityRelationEdgeStyle&quot;,&quot;startArrow&quot;:&quot;none&quot;,&quot;endArrow&quot;:&quot;none&quot;,&quot;segment&quot;:10,&quot;curved&quot;:1,&quot;sourcePerimeterSpacing&quot;:0,&quot;targetPerimeterSpacing&quot;:0};strokeColor=none;" vertex="1" parent="1">
          <mxGeometry x="511.97" y="860" width="140" height="30" as="geometry" />
        </mxCell>
        <mxCell id="nSRVxIwpDMMca3vvs-4J-57" value="" style="edgeStyle=entityRelationEdgeStyle;startArrow=none;endArrow=none;segment=10;curved=1;sourcePerimeterSpacing=0;targetPerimeterSpacing=0;rounded=0;strokeWidth=2;strokeColor=#666600;" edge="1" parent="1">
          <mxGeometry relative="1" as="geometry">
            <mxPoint x="433.5" y="920" as="sourcePoint" />
            <mxPoint x="520" y="880" as="targetPoint" />
            <Array as="points">
              <mxPoint x="518" y="880" />
            </Array>
          </mxGeometry>
        </mxCell>
        <mxCell id="nSRVxIwpDMMca3vvs-4J-58" value="unique_labels_path" style="whiteSpace=wrap;html=1;shape=partialRectangle;top=0;left=0;bottom=1;right=0;points=[[0,1],[1,1]];fillColor=none;align=center;verticalAlign=bottom;routingCenterY=0.5;snapToPoint=1;recursiveResize=0;autosize=1;treeFolding=1;treeMoving=1;newEdgeStyle={&quot;edgeStyle&quot;:&quot;entityRelationEdgeStyle&quot;,&quot;startArrow&quot;:&quot;none&quot;,&quot;endArrow&quot;:&quot;none&quot;,&quot;segment&quot;:10,&quot;curved&quot;:1,&quot;sourcePerimeterSpacing&quot;:0,&quot;targetPerimeterSpacing&quot;:0};strokeColor=none;" vertex="1" parent="1">
          <mxGeometry x="511.97" y="1000" width="140" height="30" as="geometry" />
        </mxCell>
        <mxCell id="nSRVxIwpDMMca3vvs-4J-59" value="" style="edgeStyle=entityRelationEdgeStyle;startArrow=none;endArrow=none;segment=10;curved=1;sourcePerimeterSpacing=0;targetPerimeterSpacing=0;rounded=0;exitX=0.915;exitY=1.136;exitDx=0;exitDy=0;exitPerimeter=0;strokeWidth=2;strokeColor=#336600;" edge="1" parent="1" target="nSRVxIwpDMMca3vvs-4J-58">
          <mxGeometry relative="1" as="geometry">
            <mxPoint x="412.2624999999998" y="963.44" as="sourcePoint" />
          </mxGeometry>
        </mxCell>
        <mxCell id="nSRVxIwpDMMca3vvs-4J-60" value="" style="edgeStyle=orthogonalEdgeStyle;rounded=1;orthogonalLoop=1;jettySize=auto;html=1;flowAnimation=0;strokeColor=#CC0066;strokeWidth=2;exitX=0.5;exitY=1;exitDx=0;exitDy=0;" edge="1" parent="1" source="nSRVxIwpDMMca3vvs-4J-4">
          <mxGeometry relative="1" as="geometry">
            <mxPoint x="361" y="869" as="sourcePoint" />
            <Array as="points">
              <mxPoint x="361" y="851" />
            </Array>
            <mxPoint x="361" y="919" as="targetPoint" />
          </mxGeometry>
        </mxCell>
        <mxCell id="nSRVxIwpDMMca3vvs-4J-61" value="df_test_path" style="whiteSpace=wrap;html=1;shape=partialRectangle;top=0;left=0;bottom=1;right=0;points=[[0,1],[1,1]];fillColor=none;align=center;verticalAlign=bottom;routingCenterY=0.5;snapToPoint=1;recursiveResize=0;autosize=1;treeFolding=1;treeMoving=1;newEdgeStyle={&quot;edgeStyle&quot;:&quot;entityRelationEdgeStyle&quot;,&quot;startArrow&quot;:&quot;none&quot;,&quot;endArrow&quot;:&quot;none&quot;,&quot;segment&quot;:10,&quot;curved&quot;:1,&quot;sourcePerimeterSpacing&quot;:0,&quot;targetPerimeterSpacing&quot;:0};strokeColor=none;" vertex="1" parent="1">
          <mxGeometry x="526.97" y="965" width="73.03" height="30" as="geometry" />
        </mxCell>
        <mxCell id="nSRVxIwpDMMca3vvs-4J-62" value="" style="edgeStyle=entityRelationEdgeStyle;startArrow=none;endArrow=none;segment=10;curved=1;sourcePerimeterSpacing=0;targetPerimeterSpacing=0;rounded=0;exitX=1;exitY=0.75;exitDx=0;exitDy=0;strokeWidth=2;strokeColor=#EA6B66;" edge="1" parent="1" source="nSRVxIwpDMMca3vvs-4J-37" target="nSRVxIwpDMMca3vvs-4J-61">
          <mxGeometry relative="1" as="geometry">
            <mxPoint x="430" y="1022" as="sourcePoint" />
          </mxGeometry>
        </mxCell>
        <mxCell id="nSRVxIwpDMMca3vvs-4J-63" value="df_val_path" style="whiteSpace=wrap;html=1;shape=partialRectangle;top=0;left=0;bottom=1;right=0;points=[[0,1],[1,1]];fillColor=none;align=center;verticalAlign=bottom;routingCenterY=0.5;snapToPoint=1;recursiveResize=0;autosize=1;treeFolding=1;treeMoving=1;newEdgeStyle={&quot;edgeStyle&quot;:&quot;entityRelationEdgeStyle&quot;,&quot;startArrow&quot;:&quot;none&quot;,&quot;endArrow&quot;:&quot;none&quot;,&quot;segment&quot;:10,&quot;curved&quot;:1,&quot;sourcePerimeterSpacing&quot;:0,&quot;targetPerimeterSpacing&quot;:0};strokeColor=none;" vertex="1" parent="1">
          <mxGeometry x="531.97" y="930" width="58.03" height="30" as="geometry" />
        </mxCell>
        <mxCell id="nSRVxIwpDMMca3vvs-4J-64" value="" style="edgeStyle=entityRelationEdgeStyle;startArrow=none;endArrow=none;segment=10;curved=1;sourcePerimeterSpacing=0;targetPerimeterSpacing=0;rounded=0;exitX=1;exitY=0.75;exitDx=0;exitDy=0;strokeWidth=2;strokeColor=#330066;" edge="1" parent="1" target="nSRVxIwpDMMca3vvs-4J-63">
          <mxGeometry relative="1" as="geometry">
            <mxPoint x="437" y="935" as="sourcePoint" />
          </mxGeometry>
        </mxCell>
        <mxCell id="nSRVxIwpDMMca3vvs-4J-65" value="df_train_path" style="whiteSpace=wrap;html=1;shape=partialRectangle;top=0;left=0;bottom=1;right=0;points=[[0,1],[1,1]];fillColor=none;align=center;verticalAlign=bottom;routingCenterY=0.5;snapToPoint=1;recursiveResize=0;autosize=1;treeFolding=1;treeMoving=1;newEdgeStyle={&quot;edgeStyle&quot;:&quot;entityRelationEdgeStyle&quot;,&quot;startArrow&quot;:&quot;none&quot;,&quot;endArrow&quot;:&quot;none&quot;,&quot;segment&quot;:10,&quot;curved&quot;:1,&quot;sourcePerimeterSpacing&quot;:0,&quot;targetPerimeterSpacing&quot;:0};strokeColor=none;" vertex="1" parent="1">
          <mxGeometry x="526" y="895" width="84" height="30" as="geometry" />
        </mxCell>
        <mxCell id="nSRVxIwpDMMca3vvs-4J-66" value="" style="edgeStyle=entityRelationEdgeStyle;startArrow=none;endArrow=none;segment=10;curved=1;sourcePerimeterSpacing=0;targetPerimeterSpacing=0;rounded=0;exitX=1;exitY=0.25;exitDx=0;exitDy=0;entryX=-0.028;entryY=0.425;entryDx=0;entryDy=0;entryPerimeter=0;strokeWidth=2;strokeColor=#004C99;" edge="1" parent="1" source="nSRVxIwpDMMca3vvs-4J-37" target="nSRVxIwpDMMca3vvs-4J-65">
          <mxGeometry relative="1" as="geometry">
            <mxPoint x="445" y="886" as="sourcePoint" />
          </mxGeometry>
        </mxCell>
      </root>
    </mxGraphModel>
  </diagram>
</mxfile>
